# xmcd CD database file
#
# Track frame offsets:
#	150
#	14965
#	45444
#	81448
#	107889
#	137970
#	165843
#	192656
#	219398
#	251963
#	274205
#	302044
#
# Disc length: 4303 seconds
#
# Revision: 2
# Processed by: cddbd v1.5.2PL0 Copyright (c) Steve Scherf et al.
# Submitted via: CDex 1.71
#
DISCID=b510cd0c
DTITLE=Motel Connection - Santa Maradona
DYEAR=2001
DGENRE=Alternative
TTITLE0=Santa Maradona
TTITLE1=Lost
TTITLE2=Two
TTITLE3=All over ('70 school mix)
TTITLE4=Fresh' n' up
TTITLE5=Moonflower
TTITLE6=Db volante
TTITLE7=V-brain
TTITLE8=The light of the morning
TTITLE9=Load
TTITLE10=The light of the morning (Microphone mix)
TTITLE11=Nuvole rapide
EXTD=YEAR: 2001
EXTT0=
EXTT1=
EXTT2=
EXTT3=
EXTT4=
EXTT5=
EXTT6=
EXTT7=
EXTT8=
EXTT9=
EXTT10=
EXTT11=
PLAYORDER=
